/* XPM */
static char *_4e88745fd2d4e41f84ab52c53ad46ddzgtcZ9ub8T4O1rHK[] = {
/* columns rows colors chars-per-pixel */
"64 64 99 2 ",
"   c #5773AE",
".  c #5A76AF",
"X  c #5E79AF",
"o  c #4B6AB2",
"O  c #5572B4",
"+  c #5A76B4",
"@  c #5773BD",
"#  c #5B76BB",
"$  c #5C78BB",
"%  c #627DAE",
"&  c #617CB4",
"*  c #647DBB",
"=  c #6E86AC",
"-  c #728AAC",
";  c #6F85BE",
":  c #6D85C4",
">  c #6F88C7",
",  c #758CC6",
"<  c #778EC8",
"1  c #788FC9",
"2  c #7B91CA",
"3  c #8397CA",
"4  c #869ACD",
"5  c #8A9DCF",
"6  c #8B9ED1",
"7  c #94A4CD",
"8  c #9AA9CC",
"9  c #8EA1D1",
"0  c #93A4D3",
"q  c #9AAAD5",
"w  c #9DADD9",
"e  c #A6B7DC",
"r  c #ACB9DC",
"t  c #B3BCD5",
"y  c #ACBAE0",
"u  c #B6C1DA",
"i  c #B9C3DB",
"p  c #BBC6E2",
"a  c #BFC9E1",
"s  c #CFCECC",
"d  c #D2D1CF",
"f  c #C3C7D6",
"g  c #CBCDD5",
"h  c #C4CADA",
"j  c #C9CEDE",
"k  c #D6D5D2",
"l  c #D8D7D5",
"z  c #DAD9D7",
"x  c #D1D4DE",
"c  c #DDDCDB",
"v  c #E0DFDE",
"b  c #E1E0DF",
"n  c #C0CBE6",
"m  c #C7CEE8",
"M  c #CCD3E5",
"N  c #C7D1EA",
"B  c #D3D6E1",
"V  c #DCDEE2",
"C  c #D6DDEF",
"Z  c #E0DFE0",
"A  c #E4E3E3",
"S  c #E6E6E5",
"D  c #E6E7E7",
"F  c #E8E6E3",
"G  c #E8E6E4",
"H  c #E8E7E6",
"J  c #E9E8E6",
"K  c #E9E8E7",
"L  c #EAE8E7",
"P  c #E6E5E8",
"I  c #E8E7E8",
"U  c #E9E9E8",
"Y  c #EBE9E8",
"T  c #EAEAE9",
"R  c #E8E9EA",
"E  c #EBEBEA",
"W  c #ECEAE9",
"Q  c #ECEBEB",
"!  c #EBEBEC",
"~  c #ECEBEC",
"^  c #ECECED",
"/  c #EEEDEC",
"(  c #EDEDEF",
")  c #EEEFEF",
"_  c #F0EFEE",
"`  c #F0EFEF",
"'  c #F0F0EF",
"]  c #E0E6F3",
"[  c #EEEEF0",
"{  c #F0EFF0",
"}  c #EFF0F1",
"|  c #F1F0F0",
" . c #F3F2F3",
".. c #F3F3F3",
"X. c #F3F3F4",
"o. c #F4F4F5",
"O. c #F6F6F7",
"+. c #F4F6FB",
"@. c white",
/* pixels */
"k d s d d s s d k k k k k z v z k c c c z c z z z z z A I S v S v b A A c A c b A A v A U c c Z c A A A A A A S P U c c c c c c ",
"c c c c V V b b V b A S A S A S A A A A ^ ^ U S / ^ U / / U ^ U / / / } ( ! J / { { / } / / ( [ / U U ( ^ S [ [ [ [ ! S A R A P ",
"V A V A A A A S c S S A S S U R U A A S U / U S ^ ^ ^ U U / / / ! ( [ | } | U / } [ } { | | } } ( } } ( ! P ^ ! / ( [ [ R R R R ",
"A A V A A A A v c S U S R R ( [ [ ^ U U ^ { U S ^ ^ ^ / / ( I W / ! | | ' [ S X.| { / [ [ | | / ! ' } } U S ^ [ ! ! } [ ! [ ( R ",
"A A A A A A A v c A S S A A R U ^ ^ ^ U U / H A U ^ ^ ^ ^ ` ` W ! / / / / U S | | | | / ! / ! / ( ` ( ! ^ H ! [ ! [ / ! ! U ( R ",
"c c c v V v A v k c c b V A c c A A H H U H H v v S H S F A v A I S S A A U b J U W ^ U U S A S S U S / S S S S U S S S R S A A ",
"c c A V A A V v c c c b b A A b S A S U U / W U U H J / H J H A A W J ^ / U J U U U U U ! J H U ^ ( ! / ! W U U [ U ( A ! U S R ",
"c V A A A A S A V c S U S / } A U U I ! / / ` ` ` { / ^ H | U W / | | ' ' } / ' [ | / { ` U U / / ! / ! ^ ^ / ( U ( [ c R P S R ",
"c A A A I P S H A c A U U U / A J ^ / ^ ^ ^ ^ ^ { X.| ` ` ' H ^ [ | | } / ( | | | | } [ ( H ( ` [ / { ! [ / ! ( U / ( v U P U U ",
"c V A A S U ^ ^ U S S ! U E ! A H H U ^ / ^ ^ ` / | X.' ` ` F U | | | ( | / | | } | X.| ( J / ' { { { / ^ / { / U ( ( c / P U U ",
"c k c c c c A A A c b S A A D b A A Z A A A A F U U W ^ U / H H H U J S J U U U U U [ ! / P S U U I H H A S S H S S U b A A S V ",
"c l l l l l z z c c c v A S J S A H A S v v v v v S A H W ` J H H U S S A S J U U U U ( / / U / U I A A A A S P S S U D A A A A ",
"Z A A A A A P A S H S U U [ ! ( ^ ` / U ^ W H U ^ / ^ ` } ' / ` | | ` ` / U | ' | | } | | } | o.| | | S I / ! ! [ | [ [ U U ^ ^ ",
"S P P A S U ^ A S U P I U / / / ^ ^ W W ^ ` H U ^ ` / ` | | ! } O.O.O.{ / U | / } | | | } } ( / | O.X.U U ! { / | | [ [ ! ! [ W ",
"I U P S P U ^ A S U I ! U U U [ ^ ` ^ W ^ ` H H / U ! ' { | ^ ^ { O.O.o.| U | ! / { | | | } } ( [ X.O.H U / / [ | X.| / [ / [ / ",
"P P P U I U / A A P P U U U U / ^ ^ ^ / ^ / F A ! / / ( W / ^ / ^ X.o.X./ U / ( | ( / ( / ( ( ! / | | H S U P U P ! U P U S S U ",
"z c c z c Z U S A A v A A A A S S H ! / / / I I H H H H H A S I S U / o./ / W / H b A A F H S J ! | | / ^ U H S A v A b A b v b ",
"v S S S U I ^ / W ^ U / ! A U / U U ! / / U U / ^ ^ { ` J ` / | ( | | | X.| | ' ` ` / S / ` ` ( / [ [ ( / ( / | ` S b U U / / / ",
"A P S B U ^ U / ^ ^ W ^ ` A ` ! [ / ! ! ( ( / | ^ W / ` W ` ` ' o.| | | [ o. .| ` ` / / | | | | / / / | { / / { ` ^ A ! ( / ^ / ",
"S U 9 m 2 P ^ ! ^ ^ ^ ^ / v ' / / | { / ! | | X.{ ` ^ W ^ / ` ` | X.| | X.| '  ...| / D o.| X.| / / ( } [ / [ ` / U F / / / [ / ",
"S S 5 @.] 6 U / { { ^ ^ W v { ` ( / ' / [ / | X.{ | | ^ W { / ` X.| | | o.| o. .| | W J / { O.| | | ` ` ' ` ` { ^ I U { } / ^ W ",
"A v , @.@., g c c S I H U A H ^ U U P R S A A A S A S U A A A A A A S c v c v b A J H S A S A A A A v z z z z v b U S A S A A c ",
"A S , @.@.w h A U U ` { / ^ ^ ^ | | / [ / P S U / { | { ` ` { | | | [ ` W W ! / { | ` ` { | | | / } ' W W H F U ` ^ | [ { { ! / ",
"! [ < @.@.q p A ^ ^ ^ { ^ { ` ^ ( ( / / / X.( / | | { ^ / `  .{ | | | X.| U { / W W ^ W ! / [ / ( ! ` ` ' | / / ` ` [ / U ^ / U ",
"P ^ < @.@.q u v U ^ { { [ ` ^ { { | } [ { ` ^ ` { { | | W { ` ` | o.` ` ` W | / ( U / / | { | { } | | / | | / / ^ ^ { | / ( ! | ",
"A ! < @.@.w u v U ^ W U ` ^ / ^ | | ` ( { ^ ^ ` { [ ! / ` ` ^ H ! / ` ^ ' W | { | [ ' / [ ` ' ` / U / ( | | } ( ' ` ^ ` [ / / ( ",
"A A , @.@.q t v A U I I I ^ I U J W ( ! / ^ W ^ / / ^ U H W ` W ^ H U ^ / U / ! / / U H J H I H U S S J ! / / ( / / U S H H S U ",
"l c , @.@.q t S c v Z v v v v A A A A S H W ^ U ! U H H A F H L ^ ` / { | | | | ` / W H H F H U ( U U / / U U U H A A H A b S S ",
"H I < @.@.q i ! U ^ ^ W / H ^ W ^ W ^ ` ` { { { ` ` / { / / ` ` { ` [ / | } | | | | | } / } | | | o.| o.| X.X.O.| U ! / U W ^ ^ ",
"I ! < @.@.q i [ W ^ ^ ! ` H ^ U ! / ^ / ` ^ W ` { / [ | U / ^ / ` [ / [ | | / [ ' | | / ' } | | | | | | X.| X.| | I / [ ^ ^ ^ ^ ",
"S P < @.@.q t U W / / [ ^ H ^ W / ^ / ` ^ ^ ^ ` { { ^ { U W / ^ ` / / / | { | } | | ` / ( ' | | o.| | | | | ' | | U ! ` { / ^ W ",
"A A < @.@.q i U U I ! U W A W ^ ! U U ^ W U U ^ ^ ^ ^ { ^ H U ^ U / [ / U U U U W / / U J U U E U U ( U J U J / / U S / / W ^ I ",
"v v , @.@.q t b A A S S U S A A A A A A A A F A H W ^ | ` ` U ' P U ( U / H A A H J / W H S S I S S H H F F J / / ( ( / U E E U ",
"U S , @.@.q u A A U W U ^ / ! U H W W W L W W H H ^ `  .` '  .| { ` / / / / F W W ` ` | ` / / / ` ` ` { ` S ` / [ ! [ / / E / U ",
"! ! < @.@.q p J A / { | W { | | ` ` ` { `  .` W ^ ^ ' { ` ` ` | | | | | `  .J / { { | | | | o.{ ' O.| O./ A ` ` ' } | / ( ( / ( ",
"/ U < @.@.q p P A ^ ^ ^ ! / / | ^ W ` { { { ` H W W W ` ` { ` ` ` ` | | ` ' H W ` / ' ` X.| O.{ | | ..| W A ` X.| | o.a i | } } ",
"! ! , @.@.q i U b ^ W ^ W ` W / ` ^ W ^ ^ { W A H W W W W ^ ` ` / W ( | / ' H W W / ! ` ` ` ` ` ` / ` / U v W ` / | r w r 9 / ( ",
"c A , @.@.q i H v A S A A b A A H H H H H I ^ F Z H v v z v v b U ! U / ( ` H F F A v v v A A H H U ^ [ J A A S A b 2 X.@.6 S A ",
"v Z < @.@.q ; * # $ $ # # # + # ; 7 ^ ^ W ` ` ` L L I H b F U / / ! / / | ' ` ` ` ` J F W ` W W W / / / ` W / / ( S : +.@.2 U U ",
"S S < @.@.4 + = = = = = = = = = - + 7 ` ^ ` ` ` ` ` ` ` H / / / ` ` [ { | ` ` ` |  .` H ` ` ` ` / ! } | ` ` / ! / / : +.@.2 [ / ",
"P I , @.@.5 % - - - - - - - - - - - o i { ^ { { } ` ' / I ' ' | | | | { { ` { | O.[ / U ` ` ` ` ` ` | ` [ [ X.[ / / : +.@.< / [ ",
"P U < @.@.4 % - - - - - - - - - - - @ M ^ ^ [ ` 8 , # # # $ + # $ $ $ $ $ $ $ $ $ $ $ $ # # $ $ $ $ $ $ $ $ # # : i : +.@.2 ( ! ",
"S P < @.@.6 o . O + . +   +   O   O 0 h n n h 4 X = = = = = = = = = = = = = = = = = = = = = = = = = = = = = - = = O * +.@.< z z ",
"c c , @.@.9 , 4 4 4 4 3 4 4 4 5 5 6 0 0 0 0 4 O - - - - - - - - - - - - - - - - - - - - - - - - - - - - - - - - - = # +.@.2 ( ! ",
"U ! , @.@.w m @.@.@.@.@.@.@.@.@.@.@.@.@.@.@.m & - - - - - - - - - - - - - - - - - - - - - - - - - - - - - - - - - - @ +.@.: / ( ",
"P A , @.@.w N @.@.@.@.@.@.@.@.@.@.@.@.@.@.@.n   - - - - - - - - - - - - - - - - - - - - - - - - - - - - - - - - - - @ +.@., / U ",
"R R , @.@.w N @.@.@.@.@.@.@.@.@.@.@.@.@.@.@.n   - - - - - - - - - - - - - - - - - - - - - - - - - - - - - - - - - - @ O.@.> ( U ",
"A A , @.@.w N @.@.@.@.@.@.@.@.@.@.@.@.@.@.@.n   - - - - - - - - - - - - - - - - - - - - - - - - - - - - - - - - - - @ +.@.> A S ",
"c c , @.@.w N @.@.@.@.@.@.@.@.@.@.@.@.@.@.@.a O - - - - - - - - - - - - - - - - - - - - - - - - - - - - - - - - - - # +.@.> / ( ",
"A A , @.@.w N @.@.@.@.@.@.@.@.@.@.@.@.@.@.@.n   - - - - - - - - - - - - - - - - - - - - - - - - - - - - - - - - - - @ +.@.> U U ",
"A A , @.@.w N @.@.@.@.@.@.@.@.@.@.@.@.@.@.@.n   - - - - - - - - - - - - - - - - - - - - - - - - - - - - - - - - - - @ +.@.> U U ",
"A A , @.@.w N @.@.@.@.@.@.@.@.@.@.@.@.@.@.@.n   - - - - - - - - - - - - - - - - - - - - - - - - - - - - - - - - - - @ +.@.> I U ",
"S S , @.@.w N @.@.@.@.@.@.@.@.@.@.@.@.@.@.@.n   - - - - - - - - - - - - - - - - - - - - - - - - - - - - - - - - - - @ +.@.> A A ",
"A V , @.@.w N @.@.@.@.@.@.@.@.@.@.@.@.@.@.@.n   - - - - - - - - - - - - - - - - - - - - - - - - - - - - - - - - - - @ +.@.> S S ",
"A V < @.@.q y C C C C C C C C C C C C C C C e . - - - - - - - - - - - - - - - - - - - - - - - - - - - - - - - - - - # +.@.< U P ",
"A A < @.@.9 < 3 3 4 3 4 4 4 4 4 4 4 4 4 4 4 < O - - - - - - - - - - - - - - - - - - - - - - - - - - - - - - - - - - @ +.@.< A S ",
"A A , @.@.q u A A U ! ! P U U / U [ ! ( ( U H ; % - - - - - - - - - - - - - - - - - - - - - - - - - - - - - - - - O * +.@.< A A ",
"S A , @.@.q u b A S I I I P S P R ( ( U / U P S ; + # + + + # $ + + + + + + + + + + + + + $ + # + + + + + + # & # 8 : +.@., A V ",
"V c , @.@.q r b z c Z Z A c V Z Z A A S R ! ! H J x h h g i h f h f h M j h h h h f f h h h h h j h h j m h h h V U : +.@.1 S S ",
"V A , @.@.q t A S A A S S U A A R P R U U / ! ! ` ` H H H Z A S U J S U ^ ^ U S D U U ! S A U / / U / / / / [ U R U : +.@.< P S ",
"c A 3 @.@.w t S P P P R P ! A A U ( P P P P ! P H W ^ U ^ S I W [ ^ P U / W U U ( U U U A A R / ( / ( E [ R R U S R 2 +.@.6 P P ",
"c V q y p 2 V P S A S S S R A V S P R U U U U U S S ^ W U A P U ! / U I U ^ U U U U P S A A P A A E S S P R [ ! U / 8 e p 3 A S ",
"c V A B B V A R A R P R P S A c S R P ! ! U P ! P P I U U A A ! ! ^ [ ^ ! U W P A U J A c V P P A S A A A A U U U P S g x A A V ",
"z v c V P S A V c A A P S U V c V P A S ! P A S U A A A Z c c A S A A A Z A V A A b c V c c c c c c k c c c c A V S A b V A V A "
};
