/* XPM */
static char *_9373760a75546958fdbcec603d7a62exX07BTjyiOXtAU5m[] = {
/* columns rows colors chars-per-pixel */
"64 64 82 1 ",
"  c #ED1C24",
". c #E4484E",
"X c #E64A50",
"o c #D56C70",
"O c #D76E72",
"+ c #DA7175",
"@ c #DC7377",
"# c #DD7478",
"$ c #DE7579",
"% c #DF767A",
"& c #E0777B",
"* c #E1787C",
"= c #E1797D",
"- c #E27A7E",
"; c #E47B7F",
": c #A7A7A7",
"> c gray68",
", c #AFAFAF",
"< c gray70",
"1 c #B6B6B6",
"2 c gray72",
"3 c gray73",
"4 c #BBBBBB",
"5 c #BCBCBC",
"6 c gray",
"7 c gray75",
"8 c #C5AAAB",
"9 c #CAAFB0",
"0 c #CEB3B4",
"q c #CFB4B5",
"w c #CBBDBE",
"e c #CCBEBF",
"r c #D0B5B6",
"t c #D1B6B7",
"y c #D3B8B9",
"u c #D8BDBE",
"i c #C0C0C0",
"p c #C1C1C1",
"a c gray76",
"s c #C3C3C3",
"d c #C5C5C5",
"f c #C6C6C6",
"g c gray78",
"h c #C8C8C8",
"j c gray79",
"k c #CBCBCB",
"l c gray80",
"z c #CDCDCD",
"x c #CECECE",
"c c gray81",
"v c #D0C2C3",
"b c #DBC0C1",
"n c #DFC4C5",
"m c #D7C9CA",
"M c #D0D0D0",
"N c gray82",
"B c #D2D2D2",
"V c LightGray",
"C c gray83",
"Z c #D5D5D5",
"A c gray84",
"S c #D7D7D7",
"D c #D8D8D8",
"F c gray85",
"G c #DADADA",
"H c gray86",
"J c gainsboro",
"K c #DDDDDD",
"L c gray87",
"P c #DFDFDF",
"I c #E3C8C9",
"U c #E7CCCD",
"Y c gray88",
"T c #E1E1E1",
"R c #E2E2E2",
"E c gray89",
"W c #E4E4E4",
"Q c #E6E6E6",
"! c #E7E7E7",
"~ c #E9E9E9",
"^ c #EAEAEA",
"/ c #EEEEEE",
/* pixels */
"GGGKKGKKTTGSGSSSSSSSSzg<zTTGKKKKGG^TSkNGGGGGGGGNSSSSSSNSSNNSSSGN",
"KKGGGGGGSGKGGGGSGGGGGGzzTKGGGSGGGGKGGGiizSzSSNGSSGGSSGSSSGGSSSSG",
"SSGSSSGGSNGGGGGGGKGGGGGTWGGSSSSSSSSSGGS7kzNNNSSSSSSSSNGNSSSSSSGG",
"SGGSSSSSSSGGGGGSGKGGGGSGGGGSSSNSNGSNSSSSNNSSSSSSGSSGGSSSSSSSSSGG",
"GNGGGSGSSGGGGGGGGGGGGGGGNNGSSNSSSNGNGSGGGSGGSGGGSGGSGSSSSGGGSGGG",
"GGGGKGKKGKGKGGGGGGSGSGGiGNGSSGNSSSSNGSGGSSSSGGGGSSGGGGSGGGzNSGGG",
"GGGGGGGKKSGKGGGGGGSGSSGgKTGNSSSGGGNSGGGKKKKKGKGGSSGGGGGGGGKTKKGG",
"SSSGGGGSGSKGGGSGSGNNSNSgNGGGNGSSSSSGGGGGGGGGTKKGGSSGGGSGGGGGKGSN",
"SSSSSGSGGGGGSSKGNSNNSNNzgkNSSGSSSSSSKKGSSNSGGWSGSGSNNNNSSSSGGSzz",
"SSNSSNSGGKSNNGSGSSSNSNSNwgzNNNSSGSSNSSGGGSSSSizGNSSSNSNNSSSGSNzS",
"SSSGSSSSGSSSGKGKKGSSSSSGSNSSSSSSSSSSSSNGGSNSzzSNGSGGGGNSSGGGSNSN",
"GGGSGSGGSSNNGSSGGKGGGNSNSSNGNSSSGSGGGSSSSNSNzgSSSGGGSSGGGSSSNNGS",
"GGGGKKKGSSGKGSSNNSGSGSSNNNSSNGSGGSGSNSSNSNzzzNSSNSSSGSNGGGSNNNSS",
"KKKTKTKSSGTKSGSSSNSSSSSGSSNSSSSNSNSSNzNGNNNSSSNSGGGGGGGGSGNNNSGS",
"KTKNTTKKKWKGGkGGSGGGSSGNNSSSSGGSSGGSNzzkSGGGSSNSGKTGGTKGKKNNSNSS",
"KKTKKTKWWWSNGGSGSGGTGGGSSSSSSSSGSNNNNSNSSGSNSSSSGzSTTT^^TGSSSSGG",
"KKKKKTKKKKNGSNSGGGGSTKKGSSSSSSSGJSSNNSSSSSGSGSSSSGGW^WTGSzSNGSGG",
"SSSSKKSNGNSGGSNSTKGGSGGK;              ;SGGGSSSGSGW^TGGSSSNSGGSS",
"kzNSSGSNGNWKTGGzzSSNNGGK=              =GGGGSSSSTWTKKGGGGGSGSSGS",
"zzzzzNNSNikSzGGk>kSNNNSG;              =GSSSSSGGGNzNTKKGSGGSSGNS",
"zzzzNNSNNSSSGSSSzNNNNSNS=              =SSGSSSGSzgi74gNGGGGGGGGG",
"SSSNNGSNNSSSSSSSSSGGNNNz=              =SSGSGSSGGSGNNzzzSGTTGGGS",
"GGGSGGSNSSSSSGGSGSSNSNzz$              =SGGGSSGGGNSGGSSGGGTWKKGN",
"GGGGKGSSSSSGSSSGSSNNSSNN$              =SSSNSGGGNSSNSSGKTKTzgNGS",
"GGGKKGGSSSSSGSSGG=======.              .$=&====mSNNSGG^T/^ziNzNS",
"SSGKKGGSSSSSSNzNS                              vSSGGGKGSGigSKTGG",
"SSGGGGSSSNzNNzNzN                              bGGKTTTNgizGKGWTG",
"NSGGGSSSGKKKGSSNz                              U^TTKGz44gzzzgzGz",
"SNNSSNNGSSKTSSSSG                              uNkgkgkiiigigzNGN",
"NSNSNNzSSSNgzNSGS                              8ggkigggkNNSSGggN",
"SNNNNNNNNGSzSNSSG                              9igzNSNGGGGGSGNzS",
"NNNNNNNzNkgNNSNNG                              nTTKGKKGGNkkzzzNG",
"NNzNSNNCKzkCSNSzl                              IKJgsdhggsccNcNCN",
"SSSCCNSDSlDGSSSSz                              9zlggghlzczcNNzps",
"GSCCCGSkCGHGSDGYY                              84iigjCFFFFZCFHLT",
"SSSDDSGN1DWTYYGGH                              tzmMSFHFLHHLLLKTT",
"SSDDGDGGClzNGT^TY                              mKKTTKFFHFHLZcczc",
"SSSSGGSNSNlkgghGS                              vSNcmcNchccs6spp5",
"NSSNSNCCCMzkhk47g                              qlzkggszZMhszccjj",
"SNSzNNMNMzzlhzzzz+oO$=$$.              .&#&&*&$vzzzzzzhjczzCMggz",
"zMzzzzzhzzMMzkMzkkh57kzN$              &zmBCCccczcccccMchzzzkzzz",
"kkkklzzzzzMzMzMzzzkgiiNM&              &mzNCNccccccccNNNczlccCzc",
"kkkkkkkzzMNNNCMMzzzlggMz$              &NcCcNNNccNccNCNCcclcczzc",
"kghzzlzzNMCNNNzSMMMzkhlM&              ;CCcCNNCcNccNcCCCzcczzcBc",
"zzzMMNNMNNNNSNzCCMzMzzhz$              &ZFCNNccCNcNNNCFccczccccc",
"zMMzzNCNNNNCNSMkizMMMzkl$              &CCFZFCccccNCCHcsccccclcc",
"NCCCCNCNNCCCCCMzNMzzzzkg$              @CCCCZZCcccczczjccccczzzc",
"SCCSCSCSSCCCCCNMMzkzkkzhw0qyqywqtytt0ttwzzCCCFZcBczzzhszczczczzc",
"NSSCCSSSSNNSCCSzcljjzzkjzhhzccMNcchzzjzjhpspsCFCccccchhzccczjcjh",
"NSSSSSCDKYGSSNzMzzzzzkzlzhgcFHRCMczlkzjzjjlccjZFczcNNCcZchlccdhz",
"NCNzzNzi75CNl7szzzcccclczccMcHjFFccccccNCCZZBzhjzzNcccNMDCcccjjz",
"MNzgMCDSNhigilzNcccchccccNcChsNBBcNNcCBccccczkjzhzgzcCNcczcNzjkz",
"MzzzSSMlsikNNMzMZFCjpzCZCNccgccczczcczcccclzzjzjzzlcNczzssCFclzz",
"lkkii<ishkishzzGNcZFCZNNcccjjlcCcczjzjjzjjjhhjjhhjsccghhhj5<hczz",
"ihhlkzNCCNMzzMSipcccczgzzhhjzzzcCzhhghghhggssshghzschsghhhgdzccZ",
"i5zzMCSzzMCNNNNzjzjjzjghgshhgg2:2hhhghddgsgddsgghjglhsdsghzzcjhh",
"kkzlzihzzkhkhgghdssssgsippsd6425sssdhhhggdhsdhghhjgzssgsss4shjjj",
"kkkkki7iiggiigsisdghjhjjjlcclzjjhdsgsshghhhgdgghhzghdssssssggdhh",
"klhkkgigszMMzMMzccccccczzjlNFHFCzjccchgghjjhhhhjhj6hgdgdgssdgssg",
"kgkkkkhhhihzzsgsi666s4ipssssszcsghgjzccjhjzhhhhjzjlgshhhgsssppss",
"kkkgkhhhki24iihssssspgdshhspp5,sjhhjzkzkzhhhgsdgsshsdhgdhsssspsp",
"ggighhhghkiiggghsssgssss6pp52,p64shghzhjzjhhgdgsgdsgggdghggsssss",
"ghkhgghggggggggggdgdsgsgsissdsgdsghghhhhhjjhhhgdgdshdgdgsggdssps",
"gghhgggggggsggsggggghghggsgdgdsgsssssssghhjhjjhdsssggdgdgghdgssp"
};
