/* XPM */
static char *_041cdf3ebb6492cfb0123bcd33d12e5kVGCgSNavGNhagMa[] = {
/* columns rows colors chars-per-pixel */
"64 64 113 2 ",
"   c #4B5664",
".  c #4F5967",
"X  c #4C596C",
"o  c #5B636D",
"O  c #576270",
"+  c #5E6B7C",
"@  c #6F6962",
"#  c #60666F",
"$  c #6C6E70",
"%  c #7A7C7E",
"&  c #81807F",
"*  c #556781",
"=  c #556881",
"-  c #5B6B81",
";  c #5C708B",
":  c #616F82",
">  c #647285",
",  c #687587",
"<  c #6F7886",
"1  c #65758C",
"2  c #697689",
"3  c #797D82",
"4  c #737C8A",
"5  c #687A97",
"6  c #747F90",
"7  c #7C848B",
"8  c #7A8593",
"9  c #758A96",
"0  c #778D99",
"q  c #798E9B",
"w  c #7C919F",
"e  c #6A81A1",
"r  c #7387A3",
"t  c #7E8EA7",
"y  c #728AAC",
"u  c #7E93A1",
"i  c #858383",
"p  c #898786",
"a  c #8A8987",
"s  c #81858B",
"d  c #84888E",
"f  c #8D8C8C",
"g  c #908E8E",
"h  c #91908F",
"j  c #848C93",
"k  c #8A8E95",
"l  c #908F90",
"z  c #879199",
"x  c #8B949C",
"c  c #8E999F",
"v  c #939293",
"b  c #9A9895",
"n  c #91959D",
"m  c #989798",
"M  c #9A9C9D",
"N  c #A19F9E",
"B  c #A3A09D",
"V  c #A8A49F",
"C  c #818FA2",
"Z  c #8095A2",
"A  c #8B97A8",
"S  c #8E9AAB",
"D  c #9296A0",
"F  c #959AA3",
"G  c #9B9EA4",
"H  c #A29FA0",
"J  c #89A0AF",
"K  c #9FA1A4",
"L  c #9AA6B0",
"P  c #9AA6B9",
"I  c #9CA8B9",
"U  c #A1A3A6",
"Y  c #A9A7A6",
"T  c #ADA9A7",
"R  c #A5A6A9",
"E  c #A8A6A9",
"W  c #A6A9AC",
"Q  c #ADACAC",
"!  c #B1AEAC",
"~  c #B3B0AE",
"^  c #A4A9B4",
"/  c #AEAFB1",
"(  c #A9AFBB",
")  c #B1AFB0",
"_  c #AFB1B2",
"`  c #B4B3B3",
"'  c #B8B6B5",
"]  c #BAB8B7",
"[  c #B7B6B8",
"{  c #B9B7B9",
"}  c #B7B9BB",
"|  c #BCBBBC",
" . c #C0BEBF",
".. c #BFC0BF",
"X. c #C1C0BE",
"o. c #A1AEC2",
"O. c #A4B1C4",
"+. c #BEBEC1",
"@. c #86BEE1",
"#. c #C1BFC1",
"$. c #BDC3C9",
"%. c #C3C2C3",
"&. c #C8C6C6",
"*. c #C9C8C7",
"=. c #C6C6C9",
"-. c #C8C6C9",
";. c #C7C9C9",
":. c #CBCACC",
">. c #CECED0",
",. c #D0CFD2",
"<. c #D3D2D3",
"1. c #D9D8D8",
"2. c white",
/* pixels */
"| %.=.=.#.=.{ #.=.>.#.-.#.#.#.>.-.+.:.=.=.#.#.:.-.:.>.,.:.-.%.-.,.&.] #.#.]  . .| #.%.#. .) #.' ' ' ' | +.#.,.&.&.=.:.&. .' ' | ",
"` %.{ [ | } #. .+.#.+.+.#.+.+.#.) ` +.} #.#.+.#.#.-.-.#.| <.:.&. .%.-.#.#. .| #.=.| { #.+.| T #.#.{ '  . . .%.#.] ' #.#. . .&.#.",
"=.} +.| #.#.#.#.#.#.#.#.+.+.+.[ +.%.=.%.%.[ #.-.#.| #.-.>.&.&. .&.&.| { ,.#.#.#.:.,.=.-.%.#.| ] #.[ #.#.| #.=.%. .=.| #.&.<.:.-.",
"{ +.#.` x ( ^ F x D F n D n D F F F F G D D F G G G F G n n n n G F F F G k F F D n D x x n s n k k D D F x n n G ( ( F %.#. .] ",
"` +.+.) X C o.8 8 8 8 8 6 6 8 8 8 8 8 8 8 8 9 8 6 8 8 8 8 8 8 8 8 8 8 8 8 6 8 8 8 8 8 8 8 8 8 8 8 8 8 8 8 8 8 8 8 S + . %. . .%.",
"#./ #.{ - d <.2.2.2.2.2.2.2.2.2.2.2.2.2.2.2.2.2.2.2.2.2.2.2.2.2.2.2.2.2.2.2.2.2.2.2.2.2.2.2.2.2.2.2.2.2.2.2.2.2.2.1.g > %.%.%.:.",
"/ #.+.=.: / n 8 6 : > > > 2 > : > > > > > > > > > > : > : > > > > > : 2 2 : : : : > > > > > > > : : : 2 : : : 4 8 R U > %.&.%.#.",
"` ) Q } : ) F y y y y y y y y y y y y y y y y y y y y y y y y y y y y y y y y y y y y y y y y y y y y y y y y y y R U ,  .%. .%.",
"R | E +.> _ G y y y y y y y y y y y y y y y y y y y y y y y y * y y y y y y y y y y y y y y y y y y y y y y y y y U U > ] %.%.%.",
"{ ` +.} > _ G y y y y y y y y y y y y y y y y y y y y y y y y * y y y y y y y y y y y y y y y y y y y y y y y y y K U >  .] ] ] ",
"[ } | %.: _ G y y y y y y y 5 : > , > ; - > > - > e y y y y y * y y y y y y y - : > , , > > ; > > 1 y y y y y y y U K , ' ` ' { ",
"N Q ` [ : _ K y y y y y y y I $.j z x D x 8 k F | - y y y y y * y y y y y y y +.L z z z x x c D ^ 7 y y y y y y y U G > H Q ! ` ",
"{ | ' } > ` K y y y y y y y 4 J @.@.@.@.@.@.@.@.v > y y y y y * y y y y y y ; ` @.@.@.@.@.@.@.@.Z d y y y y y y y K M > ' ` Y B ",
"{ +.#.:.- ` K y y y y y y y 4 t @.@.@.@.@.@.@.@.v > y y y y y * y y y y y y * m @.@.@.@.@.@.@.@.9 7 y y y y y y y U K > / U ` ! ",
"+.:.:.#.: / G y y y y y y y 4 q @.@.@.@.@.@.@.@.v > y y y y y * y y y y y y * p @.@.@.@.@.@.@.@.w d y y y y y y y K U , ' ` ~ ~ ",
"/ Q [ ` : ) U y y y y y y y < 0 @.@.@.@.@.@.@.@.f , y y y y y * y y y y y y * v @.@.@.@.@.@.@.@.w d y y y y y y y K K > ] ` | ` ",
"` N Q | : / K y y y y y y y < w @.@.@.@.@.@.@.@.b > y y y y y * y y y y y y = k @.@.@.@.@.@.@.@.w d y y y y y y y U U > B ' -.' ",
"`  .} } : ` G y y y y y y y < w @.@.@.@.@.@.@.@.k : y y y y y * y y y y y y = v @.@.@.@.@.@.@.@.0 s y y y y y y y U U > { ' $.| ",
"| ) | [ > ` U y y y y y y y < w @.@.@.@.@.@.@.@.a > y y y y y * y y y y y y * k @.@.@.@.@.@.@.@.w d y y y y y y y N K > ` ....` ",
"+.| | [ - / G y y y y y y y 7 w @.@.@.@.@.@.@.@.f > y y y y y = y y y y y y + K @.@.@.@.@.@.@.@.u % y y y y y y y U K , ' ~ | X.",
"` R ` [ > _ G y y y y y y y 4 w @.@.@.@.@.@.@.@.f > y y y y y * y y y y y y = v @.@.@.@.@.@.@.@.w 7 y y y y y y y K K 2 ..` ' $.",
"| } | ` > _ U y y y y y y y 4 r @.@.@.@.@.@.@.@.v > y y y y y * y y y y y y * M @.@.@.@.@.@.@.@.w d y y y y y y y U U > Q ' *.X.",
"| %.| W - / K y y y y y y y 7 u @.@.@.@.@.@.@.@.f > y y y y y * y y y y y y = a @.@.@.@.@.@.@.@.w s y y y y y y y K N > | ..' ] ",
"Q %.| [ > _ K y y y y y y y 4 w @.@.@.@.@.@.@.@.a > y y y y y * y y y y y y = h @.@.@.@.@.@.@.@.0 s y y y y y y y K K > X.X.%.] ",
"` ` ` U > Q K y y y y y y y 4 z @.@.@.@.@.@.@.@.h > y y y y y * y y y y y y = m @.@.@.@.@.@.@.@.q j y y y y y y y K K , %.| ~ %.",
"` R ` =.> _ K y y y y y y y 4 z q j c z 8 7 c c { > y y y y y * y y y y y y + ` z z z D x z x c K d y y y y y y y U U > %.` ~ ~ ",
"[ / | [ > _ K y y y y y y y 1 > : > > > : > > > t e y y y y y * y y y y y y e > > , > , ; > > > 5 r y y y y y y y K K > X.X.X.%.",
"+.Q ` [ > _ R y y y y y y y y y y y y y y y y y y y y y y y y * y y y y y y y y y y y y y y y y y y y y y y y y y K K > X.X.*.` ",
"` %.-.=.> Q K y y y y y y y y y y y y y y y y y y y y y y y y * y y y y y y y y y y y y y y y y y y y y y y y y y R K > >.*.X.] ",
"| | ..%.> _ U y y y y y y y y y y y y y y y y y y y y y y y y * y y y y y y y y y y y y y y y y y y y y y y y y y K K , X...' ..",
"[ +.$.` > _ v = > ; > > > > > > > > > + - > > > > - > > > > >   > > > > > > 1 1 > > > > > > > > > > > > > > > > + c U , *.X.] ' ",
"| ` ` ' - _ _ 2.2.2.2.2.2.2.2.2.2.2.2.2.2.2.2.2.2.2.2.2.2.2.2...2.2.2.2.2.2.2.2.2.2.2.2.2.2.2.2.2.2.2.2.2.2.2.2.2.Q K , %.....] ",
"..| %.| > _ E 2.2.2.2.2.2.2.2.2.2.2.2.2.2.2.2.2.2.2.2.2.2.2.2...2.2.2.2.2.2.2.2.2.2.2.2.2.2.2.2.2.2.2.2.2.2.2.2.2.Q K > X.{ ..Q ",
"| { | ` - ` W 2.2.2.2.2.2.2.2.2.2.2.2.2.2.2.2.2.2.2.2.Q F Q 2...2.2.W G %.2.2.2.2.2.2.2.2.2.2.2.2.2.2.2.2.2.2.2.2.Q U , %.%.] =.",
"N $.| ] > ` ! 2.2.2.2.2.2.2.2.2.2.2.2.2.2.2.2.2.3 > > > + d 2.| 2.2.8 O , > > d 2.2.2.2.2.2.2.2.2.2.2.2.2.2.2.2.2._ K > %.' X.%.",
"~  .%.| > _ E 2.2.2.2.2.2.2.2.2.2.2.2.2.2.2.2.2.=.` ` $ # j 2.%.2.2.j # % ` ` 1.2.2.2.2.2.2.2.2.2.2.2.2.2.2.2.2.2.Q U > ` ' ~ ~ ",
"Q ! _ +.- _ Q 2.2.2.2.2.2.2.2.2.2.2.2.2.2.2.2.2.2.2.2.2.2.2.2.X.2.2.2.2.2.2.2.2.2.2.2.2.2.2.2.2.2.2.2.2.2.2.2.2.2.! R 2 ;.=...*.",
"! { { +.> / Q 2.2.2.2.2.2.2.2.2.2.2.2.2.2.2.2.2.2.2.2.2.2.2.2.| 2.2.2.2.2.2.2.2.2.2.2.2.2.2.2.2.2.2.2.2.2.2.2.2.2.W K , ] | X.| ",
"| $.%.| : ` H o.o.A 8 8 8 8 8 8 8 8 8 8 8 8 8 8 8 8 8 8 8 8 8 o 8 8 8 8 8 8 8 8 8 8 8 8 8 8 8 8 8 8 8 8 8 8 P O.O.U U > X.` ] ! ",
"U ' | [ > / K y y y y y y y y y y y y y y y y y y y y y y y y * y y y y y y y y y y y y y y y y y y y y y y y y y U K , ] %.| W ",
"' ] { %.> _ K y y y y y y y y y y y y y y y y y y y y y y y y * y y y y y y y y y y y y y y y y y y y y y y y y y U U > ..| | ' ",
"*.| ` ] > Q G y y y y y y y y y y y y y y y y y y y y y y y y * y y y y y y y y y y y y y y y y y y y y y y y y y U K 2 *.| ' _ ",
"~ ' Q ' > ` K y y y y y y y y y y y y y y y y y y y y y y y y * y y y y y y y y y y y y y y y y y y y y y y y y y K U > ..| | ..",
"` $.Q ` + ^ K y y y y y y y y y y y y y y y y y y y y y y y y * y y y y y y y y y y y y y y y y y y y y y y y y y K U , ] *.%...",
"..] | ..- ! K y y y y y y y y y y y y y y y y y y y y y y y y * y y y y y y y y y y y y y y y y y y y y y y y y y U K , | ] ] ' ",
"~ ~ Q ' > ` K y y y y y y y y y y y y y y y y y y y y y y y y * y y y y y y y y y y y y y y y y y y y y y y y y y K U > X.*.X.X.",
"] ! | } > _ K y y y y y y y y y y y y y y y y y y y y y y y y * y y y y y y y y y y y y y y y y y y y y y y y y y N K 2 X.X.| ` ",
"| %.%.>.- _ K y y y y y y y y y y y y y y y y y y y y y y y y * y y y y y y y y y y y y y y y y y y y y y y y y y K U , *.X.] ~ ",
"[ ~ =.| - _ K y y y y y y y y y y y y y y y y y y y y y y y y * y y y y y y y y y y y y y y y y y y y y y y y y y K K , *...` ~ ",
"$.| | X.> _ R y y y y y y y y y y y y y y y y y y y y y y y y * y y y y y y y y y y y y y y y y y y y y y y y y y K K > ..] ' ~ ",
"~ ~ ' ~ > ! M y y y y y y y y y y y y y y y y y y y y y y y y * y y y y y y y y y y y y y y y y y y y y y y y y y K K , X.' ~ ~ ",
"R ] | ` > _ U y y y y y y y y y y y y y y y y y y y y y y y y * y y y y y y y y y y y y y y y y y y y y y y y y y K K , %.| X.| ",
"' ` ` { > _ K y y y y y y y y y y y y y y y y y y y y y y y y * y y y y y y y y y y y y y y y y y y y y y y y y y K K 2 X.! ! ` ",
"Y ]  .%.> ` K y y y y y y y y y y y y y y y y y y y y y y y y * y y y y y y y y y y y y y y y y y y y y y y y y y K U , | ` X.' ",
"[ ` {  .- _ K y y y y y y y y y y y y y y y y y y y y y y y y * y y y y y y y y y y y y y y y y y y y y y y y y y K K > ~ ' | ! ",
"! ' | | > Q K y y y y y y y y y y y y y y y y y y y y y y y y * y y y y y y y y y y y y y y y y y y y y y y y y y M K > ~ ' Q V ",
"` { { ' > _ M y y y y y y y y y y y y y y y y y y y y y y y y * y y y y y y y y y y y y y y y y y y y y y y y y y K U > T '  .X.",
"E ' ] %.> ! F y y y y y y y y y y y y y y y y y y y y y y y y * y y y y y y y y y y y y y y y y y y y y y y y y y K U >  .' ~ ` ",
"{ ' | ] > _ K y y y y y y y y y y y y y y y y y y y y y y y y = y y y y y y y y y y y y y y y y y y y y y y y y y K K >  .' ~ ] ",
"] ' ` | - _ F y y y y y y y y y y y y y y y y y y y y y y y y = y y y y y y y y y y y y y y y y y y y y y y y y y K K > ~ ~ ~ ' ",
"` Q ` | > _ F y y y y y y y y y y y y y y y y y y y y y y y y e y y y y y y y y y y y y y y y y y y y y y y y y y U U ,  . .' ' ",
"T E ' Q - _ F y y y y y y y y y y y y y y y y y y y y y y y y y y y y y y y y y y y y y y y y y y y y y y y y y y M U , ! `  .~ ",
"` ] ` ` = | F y y y y y y y y y = = = = = = = = = = = = = = = = = = + = = = = = = = = + ; y y y y y y y y y y y y R U > ~ ! ! T ",
"Q ] ' ] = +.B ] | { X.| ..a a i & p f f f p a f f i & a h m v f l l f v h f v h f f h f f h g h a h g T ' ' | '  .h 3 $ T b @ B "
};
